<svg width="106" height="108" viewBox="0 0 106 108" fill="none" xmlns="http://www.w3.org/2000/svg">
<path d="M69.4701 29.8884L105.01 29.8256L81.0864 59.5884L90.0654 96.5093L51.5747 78.1116L8.68868 108L21.8119 61.7233L0.839844 30.1395L38.3259 29.9512L56.2212 0L69.4701 29.8884Z" fill="#FFDD00"/>
<path d="M55.9075 5.33594L67.8378 32.3987L99.861 32.3359L78.3866 59.022L86.4866 92.0499L51.3866 75.222L12.9587 102.034L24.4494 61.2824L5.42383 32.5871L39.7703 32.3987L55.9075 5.33594Z" fill="#FDC300"/>
<path d="M48.3716 61.3458C48.246 62.0993 47.9948 62.8528 47.6809 63.6063C46.1111 67.0597 42.9716 69.3202 39.2669 70.0109C36.4413 70.5132 33.7413 69.8853 31.4181 68.2528C31.4809 68.4411 31.4809 68.6923 31.5436 68.8807C31.6692 69.5714 31.7948 70.2621 31.9204 70.9528C26.3948 72.1458 20.932 73.276 15.4064 74.469C13.5855 65.1132 11.7646 55.7574 9.88086 46.4016C13.5855 45.5225 17.2274 44.7063 20.932 43.8272C21.6855 47.7202 22.5018 51.6132 23.2553 55.569L24.7623 63.4807L27.0855 63.1039C26.8971 62.5388 26.5832 60.7179 26.3948 59.8388C25.7041 56.6993 26.2064 53.0574 28.153 50.4202C29.9111 48.0342 32.1716 46.9667 34.9343 46.3388C37.3204 45.8365 39.5809 46.0876 41.7785 47.0295C42.4692 47.3435 43.0343 47.6574 43.5995 48.0342L43.4111 47.1551L43.0343 45.0202L44.9181 44.7062L44.353 41.2528C47.8692 39.6202 51.1343 37.9876 54.6506 36.3551L55.2785 39.6202L66.5181 33.9062L67.6483 39.9342L70.0971 39.4946C70.2855 40.6249 70.5367 42.069 70.725 43.1993C70.8506 42.9481 71.2274 42.1946 71.353 41.9435C73.5506 39.0551 76.9413 37.3597 80.5832 37.4225C83.8483 37.4853 86.4855 38.6783 88.6832 41.3783C90.8181 44.0783 91.8855 47.469 91.7599 51.1109C91.6971 53.6853 90.6925 55.9458 89.1855 57.7667C87.6157 59.6504 85.1669 60.9062 82.7181 61.3458C80.5832 61.7225 78.7623 61.6597 76.8785 60.969C76.5646 60.8435 75.9995 60.5923 75.6855 60.4667C75.4343 60.6551 74.9948 61.0318 74.7436 61.283C73.6762 62.1621 72.8599 62.7272 71.8553 63.1667C69.9716 64.0458 68.025 64.2969 65.9529 63.8574C65.1367 63.7318 64.446 63.4807 63.7553 63.0411C63.1902 63.6063 62.7506 63.9202 62.1855 64.3597C61.432 64.9249 60.6785 65.3644 59.8623 65.6783C59.046 65.9923 58.2925 66.2435 57.4762 66.369C53.8971 66.9342 51.0716 65.8039 49.0623 62.9156C48.8111 62.476 48.5599 62.0365 48.3088 61.6597C48.4343 61.4714 48.3716 61.4086 48.3716 61.3458Z" fill="#0095DB"/>
<path d="M72.0454 51.3643C71.3547 48.5387 71.4803 45.462 73.2384 43.1387C74.6826 41.1922 76.5663 40.3759 78.764 39.9364C80.6477 39.5597 82.5314 39.6852 84.3524 40.5015C87.4291 41.8829 88.8105 44.8969 89.5012 47.9736C90.0035 50.2341 89.9408 52.4318 89.1245 54.1899C87.9315 56.8271 85.5454 58.7736 82.2803 59.3387C79.8942 59.7783 77.7594 59.1504 75.9384 57.8318C73.7408 56.1364 72.6733 53.8759 72.0454 51.3643ZM17.1035 71.8341L12.457 47.9736L19.2384 46.4039L23.0687 65.869C24.8896 65.555 26.7105 65.1783 28.5314 64.8643L29.3477 69.2597L17.1035 71.8341ZM28.657 59.9039C27.9663 57.0783 28.0919 54.0015 29.8501 51.6783C31.2942 49.7318 33.178 48.9155 35.3756 48.4759C37.2594 48.0992 39.1431 48.2248 40.964 49.0411C44.0408 50.4225 45.4221 53.4364 46.1128 56.5132C46.6152 58.7736 46.5524 60.9713 45.7361 62.7922C44.5431 65.4294 42.157 67.3759 38.8919 67.9411C36.5059 68.3806 34.371 67.7527 32.5501 66.4341C30.3524 64.6759 29.2849 62.4155 28.657 59.9039ZM35.1245 53.3736C34.6849 54.1899 34.7477 55.1318 34.8105 56.1992C34.8733 56.7015 34.9989 57.2039 35.0617 57.7062C35.1245 58.2085 35.2501 58.648 35.3128 59.1504C35.4384 59.7783 35.564 60.5318 35.8152 61.1597C36.2547 62.2899 37.0082 63.7341 38.4524 63.4201C39.2059 63.2945 39.7082 62.7294 39.8966 61.9132C40.1477 60.7829 39.8338 59.5271 39.7082 58.3969C39.6454 57.8946 39.5198 57.3922 39.3942 56.8271C39.0175 55.2573 38.4524 53.4364 37.5105 52.7457C37.071 52.369 36.6942 52.4318 36.3803 52.4945C35.8152 52.4945 35.4384 52.7457 35.1245 53.3736ZM45.8617 46.4039L47.6198 46.0271L46.9291 42.3225L53.3338 39.2457L54.2756 44.7085L56.4733 44.269L57.2896 48.7899L55.0919 49.2294L56.4105 56.1992C56.5361 56.8271 56.6617 57.3922 56.8501 57.9573C57.0384 58.5853 57.4152 59.1504 58.1059 59.2759C58.6082 59.4015 59.1105 59.1504 59.7384 58.7108L60.5547 62.7294C59.3617 63.4201 58.5454 63.7969 57.478 64.048C55.657 64.4248 53.9617 64.1736 52.6431 63.2946C50.8849 62.1015 50.3198 60.3434 49.9431 58.4597L48.5617 50.4852L46.7408 50.7992L45.8617 46.4039ZM57.9175 44.0178L59.6756 43.6411L58.9221 39.8736L65.3268 36.7969L66.3315 42.3852L68.5919 41.9457L69.4082 46.4666L67.2105 46.9062L68.4663 53.7504C68.5919 54.3783 68.7175 54.9434 68.9059 55.5085C69.0942 56.1364 69.471 56.7015 70.1617 56.8271C70.664 56.9527 71.1663 56.7015 71.7942 56.262L72.6105 60.2806C71.4175 60.9713 70.6012 61.348 69.5338 61.5992C67.7128 61.9759 66.0175 61.7248 64.6989 60.8457C62.9408 59.6527 62.3756 57.8945 61.9989 56.0108L60.5547 48.2248L58.7338 48.5387L57.9175 44.0178ZM78.5128 44.8341C78.0733 45.6504 78.1361 46.5922 78.1989 47.6597C78.2617 48.162 78.3873 48.6643 78.4501 49.1666C78.5128 49.669 78.6384 50.1085 78.7012 50.6108C78.8268 51.2387 78.9524 51.9922 79.2035 52.6201C79.6431 53.7504 80.3966 55.1318 81.8408 54.8806C82.5942 54.755 83.0966 54.1899 83.2849 53.3736C83.5361 52.2434 83.2221 50.9876 83.0966 49.8573C83.0338 49.355 82.9082 48.8527 82.7826 48.2876C82.4059 46.7178 81.8408 44.8969 80.8989 44.2062C80.4594 43.8294 80.0826 43.8922 79.7687 43.955C79.2663 43.955 78.8268 44.2062 78.5128 44.8341Z" fill="white"/>
</svg>
